<?xml version="1.0" encoding="UTF-8" standalone="no"?>
<svg width="155px" height="121px" viewBox="0 0 155 121" version="1.1" xmlns="http://www.w3.org/2000/svg" xmlns:xlink="http://www.w3.org/1999/xlink">
    <!-- Generator: Sketch 43 (38999) - http://www.bohemiancoding.com/sketch -->
    <title>logo</title>
    <desc>Created with Sketch.</desc>
    <defs></defs>
    <g id="Page-1" stroke="none" stroke-width="1" fill="none" fill-rule="evenodd">
        <g id="地點內頁" transform="translate(-83.000000, -120.000000)">
            <g id="logo" transform="translate(83.000000, 120.000000)">
                <g id="Group-3" transform="translate(19.786885, 65.083333)" fill="#9B9B9B">
                    <path d="M72.8018519,28.3777915 C71.5819444,24.9581301 70.1632286,22.1674798 68.588054,19.9671143 C68.1939663,19.4554559 67.761058,19.0235975 67.3669702,18.709092 C67.2093352,18.5917391 67.0117031,18.4743863 66.8152474,18.3558599 C66.5787948,18.1986072 66.4999772,17.962728 66.4999772,17.6482224 C66.4999772,17.3736168 66.6576123,17.0579377 66.9717061,16.6659792 C67.2093352,16.1942209 67.6022465,15.9583417 68.1151488,15.9583417 C68.588054,15.9970681 69.0597829,16.2728472 69.6115058,16.7446056 C70.2808667,17.2949904 71.2654979,18.4743863 72.6042198,20.2816199 C73.9452945,22.1674798 75.0863843,24.4089188 76.1110124,27.0024163 C76.4251063,28.0245594 76.5839177,28.8495498 76.5839177,29.4773875 C76.5839177,30.1075721 76.3474651,30.6579569 75.9145568,31.0510889 C75.5192927,31.4430473 75.0863843,31.6402001 74.5746585,31.6402001 C73.7076655,31.4829473 73.3147541,31.2083417 73.3147541,30.8152097 C73.3147541,30.3821778 73.1182984,29.5571874 72.8018519,28.3777915 M57.9523907,38.3222701 C58.1488464,37.9279646 58.2688373,36.9457214 58.2688373,35.4529935 C58.2688373,29.085429 57.9523907,20.5961254 57.4006679,10.0238092 C57.3218503,8.52990766 57.2430328,7.42913813 57.2430328,6.64287418 C57.2430328,6.01386302 57.3218503,5.54327818 57.5594794,5.22759908 C57.7947556,4.91426703 58.2276639,4.71711427 58.7793868,4.67838784 C59.2122951,4.67838784 59.6463798,4.75701424 60.1192851,4.87554059 C60.591014,5.03161985 60.8274666,5.26749904 60.9074605,5.58200462 C61.1039162,8.01942285 61.3403689,12.3814275 61.5768215,18.6703655 C61.8120978,24.9194036 61.9309123,30.4220777 61.9309123,35.1772143 C61.9309123,39.0299077 60.4745522,40.954494 57.6371205,40.954494 C56.4160367,40.954494 55.5102231,40.6798884 54.9208561,40.2081301 C54.2903157,39.7363717 54.0138661,39.1859869 54.0138661,38.6356022 C54.0138661,37.9279646 54.2903157,37.5747326 54.9208561,37.5747326 C55.1561324,37.5747326 55.352588,37.6146326 55.5890407,37.7718853 C55.7854964,37.8892382 55.9431315,38.1251174 56.021949,38.4396229 C56.2584016,38.7541285 56.6124924,38.9501077 57.1253947,38.9501077 C57.4794854,38.9501077 57.7547587,38.7142285 57.9523907,38.3222701 M52.0846008,19.1808503 C50.1929797,21.5384686 48.6966226,24.1730396 47.6719945,27.1197691 C47.1602687,28.4564179 46.8849954,29.6358138 46.8449985,30.7354098 C46.8449985,30.971289 46.8449985,31.2869681 46.923816,31.6014736 C46.6873634,31.6402001 46.4520871,31.6402001 46.2556315,31.6402001 C45.18983,31.6402001 44.4816485,31.4043209 44.0887371,30.9325625 C43.6546524,30.5394306 43.4581967,30.0676722 43.4581967,29.4773875 C43.4581967,28.8108234 43.8122875,27.5915275 44.5216454,25.784294 C46.1356406,22.5606118 47.7119915,19.9671143 49.2483455,17.962728 C50.1141621,16.8619584 50.9023376,16.2329473 51.532878,15.9970681 C51.6905131,15.9196152 51.9257893,15.8398153 52.2410595,15.8398153 C52.5563297,15.8398153 52.8316029,15.9583417 53.1080525,16.1543209 C53.4221463,16.3902001 53.5797814,16.6659792 53.6597753,16.9804848 C53.6985959,17.1365641 53.7385929,17.2949904 53.7385929,17.3736168 C53.7385929,17.6083224 53.6597753,17.7667487 53.5021403,17.8841016 C52.9504174,18.2373336 52.4775121,18.6703655 52.0846008,19.1808503" id="Fill-1"></path>
                    <g id="Group-5" transform="translate(83.264117, 0.579488)">
                        <path d="M24.8729356,31.0140054 C25.8187462,29.0729896 27.0433591,26.8198153 28.6150046,24.1652943 C30.0407787,21.6105233 31.2065726,19.8408426 32.1123862,18.8550789 C32.9040908,17.884571 33.5534532,17.367045 34.1004706,17.2978068 C35.2039162,17.2391304 35.8062234,17.5994036 35.894452,18.3011735 C35.9638585,18.8468642 35.7815194,19.3057137 35.4403689,19.7434398 C35.1086293,19.9441131 34.3663327,20.6717007 33.2252429,22.0036553 C32.4100106,23.0950366 31.6441864,24.2615237 30.9265938,25.5007695 L31.0089405,25.5301077 C31.1077565,25.6756252 31.2006906,25.7835898 31.2548042,25.895075 C31.2936248,26.2072336 31.6465392,26.7963447 32.3053127,27.6248557 C32.892327,28.5014813 33.6252125,29.2807041 34.4275046,29.9730858 C35.230973,30.664294 35.8403385,31.1031935 36.30148,31.2827434 L37.1649438,31.5303578 C37.4884487,31.5702578 37.7401943,31.6958253 37.9766469,31.9833397 C38.1625152,32.1969219 38.3248558,32.5337245 38.3824985,33.0019623 C38.3330905,33.8797614 37.8413631,34.3773374 36.8649666,34.5005579 C36.5120522,34.5439785 36.113259,34.5146402 35.622708,34.4172374 C34.8710003,34.1156406 33.9522465,33.4396883 32.7888054,32.3964217 C31.5371357,31.2862639 30.5148604,30.1080416 29.7325668,28.9380339 C29.5466985,28.7232782 29.4443534,28.5390342 29.3467137,28.3923432 C28.5938297,29.9918623 27.9127049,31.5033667 27.3468655,32.9996152 C26.6245674,34.8338399 26.092843,35.9709888 25.7175774,36.453309 C25.3987781,36.7701616 25.1070355,36.9661408 24.8341151,37.0001731 C24.0518215,37.0987495 23.2554114,36.4462678 22.4131223,35.124875 C22.6636916,34.8960369 22.9436703,34.6226048 23.263646,34.3057522 C23.4342213,34.0863024 23.9694748,32.98788 24.8729356,31.0140054 M28.5173649,13.3242401 C29.5725789,12.2410735 30.3678127,11.6261447 30.9936475,11.5475183 C32.0570962,11.493536 32.6546979,11.8150827 32.7429265,12.5168526 C32.8111566,13.0625433 32.6323467,13.5213928 32.2900197,13.9602924 C31.9194596,14.1656599 30.9960003,15.0340708 29.5219945,16.5655252 C28.0726928,18.2929588 26.6904447,20.2492305 25.3846615,22.471893 C24.0871129,24.7743555 22.9683743,26.9348211 22.0813828,29.027222 C21.1496888,31.0855906 20.4815043,32.3975952 19.9980115,32.9726241 C19.7203855,33.2859561 19.388646,33.4854559 19.0757286,33.5253559 C18.2946114,33.6227588 17.4135018,32.9397653 16.4829842,31.5514813 C16.772374,31.3179492 17.0511764,31.0057907 17.3629174,30.6490381 C17.6123103,30.4202001 18.2910823,29.1856483 19.4415832,26.9817622 C20.3097526,25.3669873 21.3884942,23.5280685 22.7201579,21.5002116 C19.6533318,21.725529 17.9805176,20.74798 17.6993625,18.5253174 C17.4840847,16.8096191 17.9958106,14.8826856 19.2392456,12.7867641 C20.4544475,10.7706426 21.6120067,9.24036168 22.6660443,8.15602155 C22.773095,8.06448634 22.8413251,7.97647172 22.8319141,7.89784533 C21.0685185,8.39776837 19.5827489,8.90003848 18.4110732,9.36475568 C18.0393367,9.57012312 17.7028916,9.7308965 17.4782028,9.83768757 C17.2193989,9.98907272 16.9911809,10.0583109 16.7947253,10.082955 C16.2877049,10.1463255 15.7736263,9.85411697 15.2936627,9.20163524 C14.825463,8.62543286 14.5607772,8.10555983 14.5019581,7.63732205 C14.4713722,7.40378992 14.5737174,7.27118122 14.8042881,7.20311658 C16.6312083,6.57762601 18.2722602,6.0542324 19.805085,5.62354752 C20.7685413,5.38414775 21.6908242,5.14944209 22.6142835,4.91473644 C22.1543185,4.73518661 21.65318,4.52160446 21.1485124,4.30684879 C20.9038251,4.25873413 20.6932529,4.16602539 20.5273831,4.10734898 C20.3226928,4.05336668 20.1956436,3.99116968 20.107415,3.92310504 C19.7592061,3.68839938 19.5651032,3.39736437 19.5204007,3.04647942 C19.4768746,2.69559446 19.6121585,2.20153905 19.9344869,1.60773374 C20.255639,1.01158138 20.6085534,0.651308195 21.0379326,0.597325895 C21.2720325,0.567987688 21.6096539,0.722893421 22.0402095,0.986937284 C22.1719642,1.08903424 22.4648831,1.20990766 22.8848512,1.3941516 C23.303643,1.57956907 23.8530131,1.82835706 24.4929645,2.18393613 C25.0905662,2.50430935 25.4717137,2.69442093 25.5964101,2.75779146 L25.8434502,2.80707965 C25.9257969,2.83524432 25.969323,2.87045017 25.9752049,2.90800308 C26.034024,3.37624086 26.00932,3.81514044 25.9704994,4.13786072 C27.2456967,3.85738746 28.0891621,3.63324356 28.5103066,3.50180839 C28.9008652,3.4525202 29.6678658,3.23776452 30.776017,2.89978838 C31.1689284,2.85050019 31.8265255,3.04530589 32.8346843,3.47364371 C33.8510777,3.9794344 34.4263282,4.46292805 34.4769126,4.85253944 C34.5851396,5.71038861 34.2134032,6.23143517 33.3981709,6.37460562 C32.8899742,6.43797614 32.3382514,6.46731435 31.732415,6.38516737 C31.1748103,6.37577915 30.6183819,6.36639092 30.1113616,6.43093497 C29.0149742,6.56823778 27.1951123,6.91442863 24.6447177,7.47302809 L24.5659001,7.48241631 C24.7376518,7.57981916 24.9458713,7.6725279 25.1187993,7.76993074 C25.8081588,8.19826856 26.2269505,8.70053867 26.3022389,9.28495575 C26.3304721,9.51848788 26.2728294,9.68395537 26.1351928,9.86115814 C26.0387295,10.0313197 25.8575668,10.1721431 25.5599423,10.3293959 C24.6329539,11.1590804 23.6742031,12.386591 22.600167,13.9485571 C21.2661506,15.9376876 20.6885474,17.3564833 20.7967744,18.215506 C20.8661809,18.7611966 21.6049484,18.9454406 23.0119004,18.7694113 C23.5977383,18.695479 24.1988692,18.4232205 24.8435261,17.8657945 C24.9199909,17.8564063 24.9941029,17.8071181 25.0717441,17.7977299 C26.4386991,15.7241054 27.5986111,14.2313775 28.5173649,13.3242401 M3.98040376,22.4261254 C4.81092896,22.0834552 5.97319369,21.5424586 7.46131603,20.7608888 L6.5072708,16.9586572 C6.22611566,16.0034052 6.05671676,15.272297 5.95790073,14.8099269 C5.87908318,14.1856098 5.90378719,13.7467103 6.10259563,13.44394 C6.29787492,13.1024432 6.66843503,12.8982493 7.17310261,12.7949788 C7.32956132,12.7750289 7.48954918,12.7961524 7.64483151,12.7762024 C8.1742031,12.2340323 8.68122344,11.5369565 9.21647693,10.7553867 C10.0234745,9.58537899 10.4187386,8.62425933 10.3246281,7.88376299 C10.2858075,7.57160446 9.99288859,7.45073105 9.47998634,7.47537514 C7.60836369,7.74998076 5.67321645,8.46818007 3.64160595,9.67339361 C3.05576806,10.063005 2.72049939,10.2249519 2.64285823,10.2343401 C1.61117183,10.2449019 0.98886612,9.41169681 0.694770795,7.70656022 L0.787704918,7.49649865 C3.90511536,5.75850327 6.7460762,4.68824548 9.36470097,4.35965756 C10.419915,4.22704886 11.3033774,4.31388996 12.0562614,4.61666025 C12.7797359,5.000404 13.264405,5.37593305 13.5137978,5.77962678 C13.8067168,6.21969988 13.9784684,6.63395537 14.0314056,7.06111966 C14.140809,7.91896883 13.9502353,8.9340708 13.5408546,10.0946903 C13.0585383,11.3045979 12.3068306,12.5860908 11.3210231,13.8992689 C10.7798877,14.6409388 10.33051,15.1713736 9.8976017,15.5034821 C10.1458182,16.5420546 10.459912,17.7695652 10.7928279,19.1543286 C11.1692699,18.9876876 11.5457119,18.8222201 11.9198012,18.6555791 C12.937371,18.2119854 13.6984897,17.9573297 14.245507,17.8892651 C14.6748862,17.8352828 15.0525046,17.9854944 15.4030662,18.2589265 C15.6089329,18.6285879 15.7700971,18.964217 15.8442092,19.232955 C15.8842061,19.546287 15.8689132,19.7446133 15.8124469,19.9112543 C15.7336293,20.2374952 15.5230571,20.4616391 15.186612,20.623586 C14.8784001,20.7010389 14.2784457,20.974471 13.3408698,21.4086764 C12.773854,21.638688 12.1339026,21.9179877 11.4610124,22.2395344 C12.2750683,26.1778953 12.9067851,29.6245479 13.2855798,32.6276068 C13.6984897,35.9029242 12.7385625,37.7265871 10.4316788,38.0164486 C9.26117942,38.1631397 8.40477383,37.9929781 7.78835003,37.5165256 C7.12840012,37.0036937 6.78136764,36.4544825 6.70372647,35.8301654 C6.61432149,35.1283955 6.84371585,34.7423047 7.46719794,34.6636783 C7.7024742,34.6343401 7.9036354,34.649596 8.15185185,34.7376106 C8.36360049,34.8291458 8.54946873,35.0439015 8.66593048,35.3454983 C8.89650121,35.9111389 9.24823922,36.1833975 9.6399742,36.1341093 C9.87289769,36.1047711 10.0046524,35.8911889 10.0446494,35.5696422 C10.0834699,35.2469219 10.0622951,34.4571374 9.91524742,33.2871297 C9.59056618,30.7135821 9.00708106,27.6577145 8.23537492,24.0702386 C7.20133576,24.6757791 6.34845932,25.1393228 5.76144505,25.5301077 C4.89327565,26.1931512 4.25802975,26.5111774 3.86629478,26.5604656 C3.31927747,26.6285302 2.86401791,26.4877068 2.54639496,26.1708542 C2.24406497,25.9713544 2.0723133,25.5570989 1.99820128,24.9726818 C1.92408925,24.3882647 1.89115058,23.7968065 1.97820279,23.2323394 C2.35817395,23.1044248 3.04165149,22.8615044 3.98040376,22.4261254" id="Fill-3"></path>
                    </g>
                    <path d="M30.2097905,26.7751039 C30.4062462,26.7563274 30.7156345,26.6870893 31.1403081,26.5662159 C31.1720704,25.6942843 31.1944217,24.7038265 31.2061855,23.5983628 L30.3027247,23.6863775 C29.2463342,23.7896479 27.7970325,23.9691978 26.0018746,24.2238534 L26.3524362,27.3876856 C28.3828704,27.110733 29.6686551,26.9065391 30.2097905,26.7751039 M31.0732544,19.4252963 C31.0097298,18.7599057 30.3862477,18.4653501 29.2898604,18.5721412 C28.1134791,18.6859735 26.9418033,18.8397057 25.7724803,19.0321643 C25.7795386,19.1107907 25.7442471,19.1542112 25.7442471,19.1542112 C25.6148452,19.4428992 25.5666135,19.7632724 25.5971995,20.0766045 L25.7807149,21.9554232 C27.301776,21.7265852 28.7051988,21.5118295 29.9603977,21.3897826 C30.2744915,21.3580973 30.6697556,21.3604444 31.1791287,21.3099827 C31.1508956,20.6023451 31.1273679,19.973334 31.0732544,19.4252963 M31.2885322,1.7906868 C31.8520188,1.89395729 32.3531573,2.16152174 32.8307681,2.58985956 C33.3083789,3.01702386 33.6095325,3.65894382 33.6977611,4.55786649 C33.9036278,6.67021739 33.8942168,8.60653905 33.7495219,10.3574432 C33.56483,12.1142151 33.3730798,13.395708 33.1319217,14.1690631 C32.7943002,14.7558272 32.3860959,15.0327799 31.9931846,15.0703328 C31.6802672,15.1008446 31.2638282,14.9048653 30.670932,14.4882628 C30.0756831,14.0728338 29.7592365,13.6691401 29.7286506,13.355808 C29.7121812,13.1997287 29.6980647,13.042476 29.7651184,12.9169084 C29.8357013,12.8324144 29.902755,12.7068469 30.0403916,12.4967853 C30.2921372,11.8396095 30.5415301,10.7494017 30.7179872,9.31065602 C30.8932681,7.87191035 30.948558,6.40617353 30.8062158,4.95803963 C30.7379857,4.25392266 30.2344945,3.94763178 29.2933895,4.03916699 L28.78284,4.0896287 C28.7557832,4.21050212 28.7228446,4.29147557 28.6887295,4.33489611 C28.4793336,4.63179877 28.2746433,4.96742786 28.153476,5.33474221 C27.4970553,7.13610812 27.0606178,9.1522297 26.8041667,11.3901481 C26.7018215,12.3477472 26.672412,13.2584052 26.7488767,14.0411485 C26.771228,14.2758542 26.7947556,14.5105598 26.8994536,14.7769508 C26.6677064,14.8391477 26.4724271,14.8579242 26.314792,14.8731801 C25.4148604,14.9611947 24.7678506,14.8262389 24.3761157,14.4694863 C23.9549712,14.1948807 23.7549863,13.7794517 23.7055783,13.271314 C23.6561703,12.7631762 23.7643974,11.8431301 24.0290832,10.514696 C24.5984517,8.2474394 25.1713494,6.41438823 25.7795386,4.93456907 C24.981952,5.28780108 24.4961066,5.57296845 24.2749469,5.75134475 C23.9808515,5.97783571 23.7926305,6.07523855 23.75381,6.07993267 C23.0479812,6.14799731 22.5080222,5.48964794 22.143344,4.18351097 L22.2233379,3.77981724 C24.7996129,2.6203713 27.2629554,1.9068661 29.5369004,1.68506926 C30.1639117,1.62404579 30.7238692,1.68858984 31.2885322,1.7906868 M18.6600789,26.8337803 C18.7788934,27.6517295 18.9188828,28.2690054 19.0741651,28.6492285 C20.0858531,28.4720258 21.0198998,28.3018642 21.8727763,28.1399173 C22.3845021,28.0894556 22.8891697,28.0014409 23.3514876,27.8770469 L23.3361946,27.7209677 L23.0079842,24.7519411 C21.6104432,25.0453232 20.2234897,25.4173317 18.8812386,25.8644459 C18.7318382,25.9583282 18.5789086,26.0123105 18.5000911,26.0193517 C18.530677,26.3326837 18.5977307,26.6025952 18.6600789,26.8337803 M19.2576806,20.4181012 C18.7177216,20.5495364 18.2165832,20.6774509 17.8319065,20.7936302 L17.8342593,20.8323567 C17.9389572,21.8885321 18.0271858,22.7886283 18.1412948,23.5666776 C19.6470628,23.1829338 21.1975334,22.8355694 22.7880009,22.5210639 L22.470378,19.6705637 C21.384578,19.8947076 20.3399514,20.1540573 19.2576806,20.4181012 M19.2635625,31.3952847 C18.9377049,31.7027491 18.6000835,31.8940342 18.2471691,31.9292401 C17.6942699,31.9421489 17.2448922,31.7895902 16.9402095,31.5020758 C16.6884639,31.3694671 16.5484745,31.1464967 16.439071,30.8402058 C15.6379554,28.3124259 15.007415,24.7003059 14.5486263,20.0073663 C14.5133349,19.6553078 14.452163,19.4241227 14.362758,19.3149846 C14.2686475,19.1659465 14.2498254,18.9699673 14.229827,18.7739881 C14.2157104,18.6179088 14.3121736,18.4113678 14.5721539,18.2282974 C14.7580222,18.0921681 15.0627049,17.9818565 15.4944369,17.940783 C15.8861718,17.9020566 16.3720173,18.0123682 16.944915,18.1942651 C17.0307908,18.2658503 17.1119611,18.2963621 17.1954842,18.3280473 C22.0339405,17.2249307 26.354789,16.487955 30.1568534,16.1182936 C30.8626821,16.0502289 31.5438069,16.1405906 32.1555252,16.3177934 C32.7307757,16.5384167 33.2354432,16.8447076 33.7095249,17.2331454 C34.104789,17.629798 34.342418,18.0405329 34.3835914,18.4712178 C34.4600562,19.2527876 34.4941712,20.3946306 34.5647541,21.9284321 C34.5600486,23.5091747 34.6271023,25.0019027 34.6870978,26.4183513 L34.7506223,27.0837418 C34.7670917,27.2398211 34.7000379,27.3642151 34.6365134,27.528509 C34.8117942,27.7092324 34.9059047,27.857097 34.9176685,27.9744498 C34.987075,28.6797403 34.6682757,29.0658311 34.0412644,29.1268546 C33.6107089,29.1691016 33.1754478,29.1714486 32.6966606,29.1397634 C32.2190498,29.1069046 31.8226093,29.1057311 31.4308743,29.1444575 C30.3721311,29.2465544 28.6169702,29.4976895 26.1536278,29.8157157 C23.6949909,30.1736418 21.6763206,30.5679473 20.1317319,30.9552116 C19.8646934,31.0596556 19.6329463,31.1218526 19.4400197,31.180529 C19.372966,31.304923 19.3000304,31.3518642 19.2635625,31.3952847 M20.8552064,3.95232589 C19.7082347,4.38066372 18.2695203,5.03314544 16.5025956,5.99543863 C16.4778916,6.55051751 16.4414238,7.38372259 16.3531952,8.49857445 C16.2179114,10.3668315 16.2226169,12.0250269 16.3673118,13.5107137 C16.3990741,13.8252193 16.6084699,13.9613486 16.9225638,13.9308369 C17.5883956,13.8662928 18.5636157,13.2983051 19.8364602,12.1482474 C19.5176609,11.7433801 19.2529751,11.4535187 19.0729888,11.2340689 C18.6471387,10.9207368 18.3448087,10.6731224 18.0907104,10.5006137 C17.6836825,10.3820873 17.4989906,10.1239111 17.4660519,9.77185264 C17.4272313,9.38106772 17.5025197,8.93864756 17.777793,8.5173509 C17.9801305,8.14182185 18.391864,7.90359561 18.9412341,7.85078684 C19.5788327,7.9071162 20.4081815,8.69455367 21.5022162,10.1696787 C22.5162568,11.6494979 23.0985656,12.7373586 23.1997344,13.3605021 C23.223262,13.5952078 23.0950364,13.9226222 22.8209396,14.3439188 C22.4668488,14.7734302 22.0904068,14.9682359 21.6586749,15.0104829 C21.5810337,15.0186976 21.4481026,14.8731801 21.3292881,14.4894363 C21.2845856,14.415504 21.2398831,14.3791247 21.2328248,14.3016718 C21.1975334,14.3450923 21.1587128,14.3486129 21.1587128,14.3486129 C19.9340999,15.5737765 18.4142152,16.2356464 16.6108227,16.4105021 C14.6827338,16.5196402 13.6663403,15.8284321 13.5192927,14.3415718 C13.3357772,12.4639265 13.2946038,10.0194671 13.396949,7.00936706 C12.8216985,6.78874375 12.5440726,6.38152943 12.4876063,5.79476529 C12.4217289,5.12937476 12.5240741,4.56608119 12.8346387,4.10136399 C13.144027,4.03212582 13.4157711,3.96523471 13.6816333,3.86079069 C14.4109897,3.63195267 15.2862174,3.27050596 16.3131982,2.85507695 C17.3072404,2.48072143 18.1848209,2.15800115 18.8718276,1.89513082 C19.5235428,1.67333397 20.0223285,1.50669296 20.3340695,1.47618122 C21.0787189,1.79772797 21.548095,2.1474394 21.7480798,2.56286841 C21.81631,3.26698538 21.7727838,3.62608503 21.622207,3.7199673 C21.4351624,3.81737014 21.1669475,3.92181416 20.8552064,3.95232589 M4.93053279,4.19994036 C5.85752125,4.38653136 6.75745294,4.69282224 7.62797511,5.08243363 C8.37968276,5.48260677 8.77729964,5.91915929 8.81612022,6.30994421 C8.86552823,6.81808195 8.79376897,7.29805502 8.68318913,7.7827222 C8.57260929,8.26738938 8.36086066,8.5255656 8.08558743,8.55255675 C7.85031117,8.57485379 7.5656269,8.48449211 7.14918792,8.28851289 C6.82097753,8.16294536 6.32689739,7.97400731 5.71282635,7.75690458 C5.06228749,7.58322239 4.26352459,7.50342247 3.36241651,7.59143709 C3.04832271,7.62194883 2.73775804,7.69118699 2.42954614,7.75925164 C2.11427596,7.7909369 1.78606557,7.66536937 1.44609138,7.42244902 C1.10258804,7.1396287 0.933189132,6.64205271 0.861429872,5.89920931 C0.800258045,5.27371874 0.912014268,4.78905156 1.28022162,4.51561947 C1.56961141,4.25040208 1.95193534,4.09432282 2.49895264,4.04151404 C3.12714026,3.98049057 3.92707954,4.06146402 4.93053279,4.19994036 M5.63636157,32.879798 C6.06103522,32.3646191 6.7351017,31.1535379 7.62091682,29.289975 C8.4714405,27.4698326 8.88317395,26.0087899 8.78318154,24.9913409 C8.73024438,24.4444767 8.37732999,24.0842035 7.72090923,23.831895 C5.68341682,23.2392632 4.61879174,22.4741227 4.51997571,21.4566737 C4.43645264,20.5964775 4.86936096,19.7656195 5.81987705,18.9617526 C7.2256527,17.1662543 7.88795537,15.8378203 7.79619763,14.8989977 C7.76561172,14.5856656 7.47269277,14.4178511 6.92449909,14.4706599 C6.13867638,14.5469392 5.29521099,14.8262389 4.38939739,15.2698326 C3.47887826,15.6746999 2.94009563,16.241514 2.6965847,16.9749692 C2.47189587,17.1157926 2.24132514,17.1768161 2.00604888,17.2002866 C1.65313449,17.2354925 1.27786885,17.0348192 0.923778081,16.674546 C0.574392835,16.3130993 0.375584396,15.8976703 0.329705525,15.4282589 C0.283826655,14.9588476 0.51557377,14.5023451 1.06141469,14.0153309 C1.78724196,13.3522874 2.64717668,12.8335879 3.67886308,12.4568853 C4.75289921,12.1153886 5.80105495,11.8947653 6.78098057,11.798536 C7.95618549,11.6847037 8.9996357,11.8196595 9.8678051,12.2092709 C10.6630389,12.6446499 11.1265331,13.3511139 11.2182908,14.288763 C11.2853446,14.9541535 11.1253567,15.7591939 10.7818534,16.7015371 C10.4348209,17.6039804 9.67605495,18.7446499 8.54437614,20.117678 C8.14323012,20.4720835 7.97030206,20.7267391 7.98206588,20.8429184 C8.01735732,21.1961504 8.565551,21.5388207 9.66076199,21.8251616 C11.1182984,22.1572701 11.9535291,23.0245075 12.0994004,24.5101943 C12.1711597,26.0439958 11.8641242,27.7714294 11.1430024,29.6983628 C11.1912341,29.7722951 11.2324074,29.807501 11.2724044,29.8039804 C14.2698239,31.7238726 18.0271858,32.8985745 22.5468427,33.4055387 C24.8631375,33.6132532 27.1594338,33.6273355 29.4333789,33.4055387 C30.5309426,33.2987476 31.6061551,32.9572509 32.5790225,32.3892632 C33.058986,32.0266429 33.4377808,31.8705637 33.713054,31.8435725 C35.1000076,31.8670431 35.8705373,32.4631955 35.9787644,33.5580973 C36.0481709,34.2622143 35.6670234,34.8137726 34.8776715,35.245631 C34.005973,35.6458042 33.2836749,35.9532686 32.6719566,36.1703713 C32.0167122,36.3534417 31.3579387,36.4966122 30.6921069,36.5611562 C26.9676837,36.9237765 23.5938221,36.8181589 20.5775804,36.3217564 C17.4413479,35.8370893 14.6615589,34.9240843 12.1923345,33.5451885 C11.2724044,33.0417449 10.5571645,32.5969777 9.96897389,32.2601751 C9.10315726,33.9254117 8.31968731,35.2245075 7.61621129,36.1222566 C6.58687766,37.3286437 5.77635094,37.9611755 5.15051609,38.0210254 C4.55409077,37.9999019 4.14000455,37.8039227 3.86590771,37.4354348 C3.51064056,37.0364352 3.29183364,36.4250269 3.20831056,35.5648307 C3.17772465,35.2514987 3.22242714,34.892399 3.34006527,34.4863582 C3.45535064,34.0404175 3.74944596,33.8139265 4.1811779,33.7716795 C4.37645719,33.752903 4.57644202,33.772853 4.73407711,33.7575972 C4.85053886,33.7458619 5.13875228,33.441918 5.63636157,32.879798" id="Fill-6"></path>
                </g>
                <g id="Group-2" transform="translate(80.049180, 26.500000) scale(-1, 1) translate(-80.049180, -26.500000) translate(33.049180, 0.000000)">
                    <polygon id="Fill-8" fill="#8D8D8D" points="73.1217441 30.3573798 0.00023527626 0.868961139 63.6306998 52.6896229"></polygon>
                    <polygon id="Fill-10" fill="#AFAFAF" points="73.1217441 30.3573798 0.00023527626 0.868961139 93.3013889 19.7064371"></polygon>
                    <polygon id="Fill-12" fill="#777777" points="63.8829159 35.2704733 0.000705828779 0.867318199 63.6311703 52.690327"></polygon>
                    <polygon id="Fill-14" fill="#AFAFAF" points="63.8829159 35.2704733 0.000705828779 0.867318199 34.6380768 50.6413467"></polygon>
                </g>
                <path d="M58.6480873,53.3170519 C48.0380132,56.8782321 24.1393443,66.3541667 11.4344262,56.1875 C7.14646142,52.756206 14.6573684,43.692068 21.2026406,48.4001823 C32.0286551,56.1875 -8.1564513,70.6734749 2.54098361,100.666667 C6.38299843,111.438809 15.2459016,122.270833 32.0286551,119.299987 C39.3725262,117.999991 53.61854,114.199375 60.9836066,112.483054 C85.3418862,106.806714 107.991803,119.299987 137.007613,117.626783 C140.080581,117.44958 143.362938,114.235634 145.910103,112.483054 C149.427194,110.063116 151.664825,106.174642 154.542186,103.020435" id="Path-2" stroke="#979797" stroke-dasharray="5,3"></path>
            </g>
        </g>
    </g>
</svg>